<svg id="Layer_1" data-name="Layer 1" xmlns="http://www.w3.org/2000/svg" viewBox="0 0 307.78 35.94"><defs><style>.cls-1{fill:#f2f2f2;}</style></defs><path class="cls-1" d="M296.83,251c4.71,0,5.39-1,5.39-6.63V226c0-5.67-.68-6.57-5.39-6.57V218.2h26.82l.45,7.48h-1.19l-.29-1.13c-.73-3-1.36-4.26-6.51-4.26h-9.36v12.87h2.84c5.67,0,6.57-.68,6.57-5.44h1.19v13h-1.19c0-4.76-.9-5.44-6.57-5.44h-2.84v9.13c0,5.66.68,6.63,5.39,6.63v1.19H296.83Z" transform="translate(-296.83 -217.23)"/><path class="cls-1" d="M323.76,248.18c0-4.81,5.61-6.91,12.07-8.05,0-4.25-.56-5.95-3.79-5.95-1.31,0-3.23.91-3.23,2.72a2,2,0,1,1-3.92,0c0-2.72,3.58-4.53,7.2-4.53,5.5,0,7.77,2.32,7.77,7.71v8.56c0,1.41.45,2.21,1.3,2.21a2.58,2.58,0,0,0,1.59-.85l.79,1.08a5.36,5.36,0,0,1-3.74,1.75,3.57,3.57,0,0,1-3.85-3.29c-2.78,2.5-4.82,3.41-7.09,3.41C326.08,253,323.76,251.19,323.76,248.18Zm12.07-.51v-5.78c-5.38,1.25-7.82,3.12-7.82,5.61a2.69,2.69,0,0,0,2.67,2.9C331.87,250.4,333.23,250,335.83,247.67Z" transform="translate(-296.83 -217.23)"/><path class="cls-1" d="M346.61,251c3.74,0,4.48-1,4.48-6.63v-2.84c0-5.67-.74-6.57-4.48-6.57v-1.19l7.54-1.42a23.31,23.31,0,0,1,1,4.08c1.14-2.27,3.69-4.08,5.95-4.08,3.12,0,4.48,2.1,4.48,3.51,0,1.25-.51,2.67-2.27,2.67a2.06,2.06,0,0,1-2-2,1.68,1.68,0,0,0-1.81-1.87c-1.31,0-4.37,2.09-4.37,6.63v3.12c0,5.66.68,6.63,4.48,6.63v1.19h-13Z" transform="translate(-296.83 -217.23)"/><path class="cls-1" d="M368.89,251c3.74,0,4.48-1,4.48-6.63v-2.84c0-5.67-.74-6.57-4.48-6.57v-1.19l7.54-1.42a23.31,23.31,0,0,1,1,4.08c1.53-1.93,4.08-4.08,7.37-4.08,3.46,0,5.27,1.64,6.07,4.25a10.77,10.77,0,0,1,7.93-4.25c5.05,0,6.52,3.63,6.52,8.44v3.58c0,5.66.74,6.63,4.48,6.63v1.19h-12V251c3.12,0,3.52-.62,3.52-6.63V241.1c0-3.69-1.08-6.07-4-6.07-1.93,0-5.89,2.16-5.89,5.67v3.69c0,6,.39,6.63,3.57,6.63v1.19H383.74V251c3.12,0,3.57-.62,3.57-6.63V241.1c0-3.69-1.13-6.07-4.08-6.07-2,0-5.84,2.16-5.84,5.67v3.69c0,5.89.4,6.63,3.52,6.63v1.19h-12Z" transform="translate(-296.83 -217.23)"/><path class="cls-1" d="M426.26,251c4.7,0,5.38-1,5.38-6.63V226c0-5.67-.68-6.57-5.38-6.57V218.2h15.3v1.19c-4.7,0-5.38.9-5.38,6.57v7.94L447.8,224c3.57-3.06,3.8-4.59.23-4.59V218.2h13.15v1.19c-4.37,0-6.41,1.19-10.38,4.59l-9.92,8.5,17.58,15.25c2.09,1.81,5.78,3.29,7.31,3.29v1.19H449.84V251c3.74,0,4.42-1.36,2.16-3.29l-14.35-12.41-1.47,1.19v7.88c0,5.66.68,6.63,5.38,6.63v1.19h-15.3Z" transform="translate(-296.83 -217.23)"/><path class="cls-1" d="M467.65,251c3.74,0,4.47-1,4.47-6.63v-2.84c0-5.67-.73-6.57-4.47-6.57v-1.19l8.5-1.42v12c0,5.66.68,6.63,4.48,6.63v1.19h-13Zm4-26.76a2.5,2.5,0,1,1,2.5,2.55A2.52,2.52,0,0,1,471.61,224.26Z" transform="translate(-296.83 -217.23)"/><path class="cls-1" d="M486.24,246.65V235.32h-2.95V234c3.4-.74,4.65-3.18,5-6.86h1.92v6.23h4.94v2h-4.94v11.33c0,2.67.74,4.09,2.56,4.09a6,6,0,0,0,3.68-1.93l1,1a8.63,8.63,0,0,1-5.95,3.23C488.39,253,486.24,251,486.24,246.65Z" transform="translate(-296.83 -217.23)"/><path class="cls-1" d="M501.15,243.25c0-6.69,5.5-10.88,10-10.88,4.71,0,6.75,2,6.75,4.08a2.37,2.37,0,0,1-2.49,2.44,2.23,2.23,0,0,1-2.22-2.27c0-1.87-1-2.44-2-2.44-3,0-5.44,3.86-5.44,9.07,0,4.54,2.21,7.54,6.86,7.54a9.25,9.25,0,0,0,6.07-2.61l1,1.25a11.57,11.57,0,0,1-8.45,3.74C504.89,253.17,501.15,248.92,501.15,243.25Z" transform="translate(-296.83 -217.23)"/><path class="cls-1" d="M521.79,251c3.79,0,4.47-1,4.47-6.63V226.47c0-5.67-.68-6.63-4.47-6.63v-1.19l8.5-1.42v19.22c1.59-1.93,4.14-4.08,7.42-4.08,5.22,0,7,3.63,7,8.44v3.58c0,5.66.73,6.63,4.53,6.63v1.19H536.64V251c3.57,0,4-.79,4-6.63V241.1c0-3.69-1.3-6.07-4.25-6.07s-6.12,2.44-6.12,5.67v3.69c0,5.89.45,6.63,3.57,6.63v1.19H521.79Z" transform="translate(-296.83 -217.23)"/><path class="cls-1" d="M553,242.74a10.58,10.58,0,0,1,10.49-10.37c5,0,9.07,4.08,7.71,9H557.56c-.68,5.32,1.53,9.46,7.37,9.46a10.4,10.4,0,0,0,6.23-2.61l1,1.25a12.71,12.71,0,0,1-8.67,3.74A10.2,10.2,0,0,1,553,242.74Zm14.29-3.51c.62-1.82-.34-4.59-4.08-4.59-2.44,0-4.54,1.81-5.33,4.59Z" transform="translate(-296.83 -217.23)"/><path class="cls-1" d="M576.38,251c3.74,0,4.48-1,4.48-6.63v-2.84c0-5.67-.74-6.57-4.48-6.57v-1.19l7.54-1.42a23.31,23.31,0,0,1,1,4.08,10.05,10.05,0,0,1,7.88-4.08c5.1,0,7.37,3.63,7.37,8.44v3.58c0,5.66.68,6.63,4.48,6.63v1.19h-13V251c3.68,0,4.48-1,4.48-6.63V241.1c0-3.69-1.31-6.07-4.71-6.07-3.12,0-6.52,2.55-6.52,5.67v3.69c0,5.84.46,6.63,4,6.63v1.19H576.38Z" transform="translate(-296.83 -217.23)"/></svg>